<svg width="24" height="26" viewBox="0 0 24 26" fill="none" xmlns="http://www.w3.org/2000/svg">
<path d="M19.3903 0H12.4758V2.30483H19.3903V0Z" fill="#1F1F1F"/>
<path d="M17.0848 4.60967H14.7799V6.9145H17.0848V4.60967Z" fill="white"/>
<path d="M21.6952 2.30483H10.171V4.60967H21.6952V2.30483Z" fill="#1F1F1F"/>
<path d="M19.3903 6.9145H10.171V9.21934H19.3903V6.9145Z" fill="#1F1F1F"/>
<path d="M19.3903 9.21934L12.4758 9.21897V11.5238H19.3903V9.21934Z" fill="#1F1F1F"/>
<path d="M21.6952 11.5242H0.951654V13.829H21.6952V11.5242Z" fill="#1F1F1F"/>
<path d="M24 13.829H0.951654V16.1338H24V13.829Z" fill="#1F1F1F"/>
<path d="M24 16.1338H0.951654V18.439H24V16.1338Z" fill="#1F1F1F"/>
<path d="M24 18.439H0.951654V20.7435H24V18.439Z" fill="#1F1F1F"/>
<path d="M24 20.7435H3.25649V23.0483H24V20.7435Z" fill="#1F1F1F"/>
<path d="M21.6952 23.0483H5.56132V25.3532H21.6952V23.0483Z" fill="#1F1F1F"/>
<path d="M5.56205 9.21897H0.952383L0.951654 11.5242L5.56205 11.5238V9.21897Z" fill="#1F1F1F"/>
<path d="M5.56205 6.9145H3.25722V9.21934L5.56205 9.21897V6.9145Z" fill="#1F1F1F"/>
<path d="M19.3903 6.9145H23.8079V9.21934H19.3903V6.9145Z" fill="#1F1F1F"/>
<path d="M21.6952 4.60967L17.0848 4.60967V6.9145H21.6952V4.60967Z" fill="#1F1F1F"/>
<path d="M14.7799 4.60967L10.171 4.60967V6.9145H14.7799V4.60967Z" fill="#1F1F1F"/>
</svg>
